<?xml version="1.0" encoding="utf-8"?>
<!-- Generator: Adobe Illustrator 24.0.3, SVG Export Plug-In . SVG Version: 6.00 Build 0)  -->
<svg version="1.1" id="圖層_1" xmlns="http://www.w3.org/2000/svg" xmlns:xlink="http://www.w3.org/1999/xlink" x="0px" y="0px"
	 viewBox="0 0 160 55" style="enable-background:new 0 0 160 55;" xml:space="preserve">
<style type="text/css">
	.st0{fill:#FBF9F4;}
</style>
<g>
	<g>
		<g>
			<path class="st0" d="M22.9,14.37h2.94c0.19,0,0.35-0.16,0.35-0.34c0-0.19-0.16-0.35-0.35-0.35H22.9c-0.19,0-0.35,0.15-0.35,0.35
				C22.56,14.22,22.72,14.37,22.9,14.37z M24.37,39.72c-0.84,0-1.53,0.68-1.53,1.51c0,0.83,0.69,1.5,1.53,1.5
				c0.84,0,1.53-0.67,1.53-1.5C25.9,40.39,25.22,39.72,24.37,39.72z M16.88,38.43h14.98V16.6H16.88V38.43z M64.92,31.26
				c-0.71,0-1.35,0.23-1.93,0.69c-0.58,0.47-0.96,1.08-1.13,1.83c-0.09,0.35-0.13,0.64-0.13,0.87v2.13c0,0.93,0.28,1.72,0.87,2.35
				c0.58,0.63,1.33,0.96,2.25,0.96c1.08,0,1.93-0.41,2.54-1.23c0.6-0.82,0.9-1.91,0.9-3.26c0-1.24-0.28-2.27-0.85-3.07
				C66.81,31.69,65.97,31.26,64.92,31.26z M117.46,31.08c-1.15,0-2.03,0.5-2.63,1.52c-0.52,0.84-0.78,1.85-0.78,3.06
				c0,1.17,0.26,2.18,0.78,3.01c0.62,1.01,1.49,1.52,2.61,1.52c1.1,0,1.96-0.51,2.58-1.55c0.54-0.85,0.81-1.86,0.81-3.03
				s-0.26-2.18-0.77-3.01C119.45,31.59,118.59,31.08,117.46,31.08z M79.17,31.26c-0.71,0-1.35,0.23-1.93,0.69
				c-0.58,0.47-0.96,1.08-1.14,1.83c-0.09,0.35-0.13,0.64-0.13,0.87v2.13c0,0.93,0.28,1.72,0.87,2.35c0.58,0.63,1.33,0.96,2.25,0.96
				c1.09,0,1.93-0.41,2.54-1.23c0.61-0.82,0.91-1.91,0.91-3.26c0-1.24-0.29-2.27-0.85-3.07C81.05,31.69,80.21,31.26,79.17,31.26z
				 M49.4,26.69h-0.05c-0.18,0.75-0.46,1.86-0.86,3.34L47,34.65h4.83l-1.51-4.62C50.15,29.55,49.84,28.44,49.4,26.69z M139.31,30.94
				c-0.94,0-1.7,0.4-2.29,1.16c-0.48,0.61-0.77,1.35-0.85,2.2h6c0.02-0.84-0.17-1.56-0.56-2.18
				C141.11,31.34,140.34,30.94,139.31,30.94z M62.1,18.34c0.04-0.12,0.04-0.24,0.04-0.37v-0.9c-1.19-0.01-2.33,0.23-2.33,1.23
				c0,0.65,0.42,0.95,0.96,0.95C61.46,19.25,61.94,18.82,62.1,18.34z M46.38,14.21c-0.18-0.55-0.33-1.17-0.47-1.7h-0.03
				c-0.14,0.53-0.29,1.16-0.44,1.7l-0.71,2.24h2.37L46.38,14.21z M141.97,13.56c2.17,0,2.88,1.76,2.88,3.2
				c0,0.31-0.03,0.55-0.06,0.7h-4.47c0.04,1.19,0.97,1.7,2.06,1.7c0.78,0,1.33-0.12,1.85-0.3l0.25,1.14
				c-0.58,0.24-1.37,0.42-2.33,0.42c-2.17,0-3.44-1.31-3.44-3.32C138.71,15.28,139.83,13.56,141.97,13.56z M115.21,13.71l0.08,0.99
				h0.04c0.3-0.51,1.03-1.13,2.14-1.13c1.17,0,2.37,0.74,2.37,2.82v3.9h-1.69v-3.71c0-0.94-0.36-1.66-1.28-1.66
				c-0.67,0-1.14,0.47-1.32,0.97c-0.06,0.14-0.08,0.34-0.08,0.53v3.88h-1.69v-4.62c0-0.76-0.03-1.39-0.06-1.96H115.21z M97.5,13.56
				c2.17,0,2.88,1.76,2.88,3.2c0,0.31-0.03,0.55-0.06,0.7h-4.47c0.04,1.19,0.97,1.7,2.06,1.7c0.78,0,1.33-0.12,1.85-0.3l0.25,1.14
				c-0.58,0.24-1.37,0.42-2.33,0.42c-2.17,0-3.44-1.31-3.44-3.32C94.24,15.28,95.36,13.56,97.5,13.56z M90.59,10.7h1.69v9.59h-1.69
				V10.7z M77.22,14.74c-0.66,0-1.34,0.2-1.8,0.49l-0.33-1.08c0.49-0.3,1.36-0.58,2.41-0.58c2.14,0,2.76,1.34,2.76,2.78v2.36
				c0,0.59,0.03,1.17,0.11,1.58h-1.52l-0.12-0.73h-0.04c-0.4,0.51-1.1,0.88-1.97,0.88c-1.34,0-2.1-0.96-2.1-1.96
				c0-1.65,1.49-2.5,3.96-2.48v-0.11C78.58,15.45,78.4,14.74,77.22,14.74z M67.25,10.97c0.58,0,0.93,0.39,0.95,0.9
				c0,0.49-0.37,0.89-0.96,0.89c-0.56,0-0.93-0.41-0.93-0.89C66.3,11.36,66.69,10.97,67.25,10.97z M68.08,13.71v6.58H66.4v-6.58
				H68.08z M44.89,11.19h2.15l3,9.1h-1.82l-0.84-2.58h-2.92l-0.8,2.58h-1.74L44.89,11.19z M33.66,41.37c0,1.6-1.33,2.9-2.95,2.9
				H18.04c-1.63,0-2.96-1.3-2.96-2.9V13.65c0-1.6,1.33-2.91,2.96-2.91h12.66c1.63,0,2.95,1.3,2.95,2.91V41.37z M54.01,42.03
				l-1.68-5.2h-5.84l-1.6,5.2h-2.98l5.78-17.71h3.58l5.82,17.71H54.01z M54.67,20.29h-1.66l-2.48-6.58h1.82l1.08,3.34
				c0.19,0.58,0.33,1.11,0.45,1.65h0.04c0.12-0.54,0.27-1.05,0.45-1.65l1.07-3.34h1.77L54.67,20.29z M58.14,18.48
				c0-1.65,1.49-2.5,3.96-2.48v-0.11c0-0.43-0.18-1.15-1.36-1.15c-0.66,0-1.34,0.2-1.8,0.49l-0.33-1.08
				c0.49-0.3,1.36-0.58,2.41-0.58c2.14,0,2.76,1.34,2.76,2.78v2.36c0,0.59,0.03,1.17,0.11,1.58h-1.52l-0.12-0.73h-0.04
				c-0.4,0.51-1.1,0.88-1.97,0.88C58.89,20.44,58.14,19.48,58.14,18.48z M69.42,40.65c-1.07,1.12-2.41,1.68-3.99,1.68
				c-1.72,0-2.95-0.6-3.7-1.82v6.71h-2.88V33.46c0-1.37-0.04-2.76-0.11-4.2h2.53l0.16,2.02h0.05c0.96-1.52,2.42-2.28,4.38-2.28
				c1.53,0,2.8,0.59,3.83,1.78c1.02,1.19,1.53,2.76,1.53,4.7C71.22,37.67,70.62,39.38,69.42,40.65z M72.42,20.29h-1.69V10.7h1.69
				V20.29z M83.66,40.65c-1.07,1.12-2.4,1.68-4,1.68c-1.72,0-2.95-0.6-3.7-1.82v6.71h-2.88V33.46c0-1.37-0.04-2.76-0.11-4.2h2.53
				l0.17,2.02h0.05c0.97-1.52,2.42-2.28,4.38-2.28c1.53,0,2.81,0.59,3.83,1.78c1.02,1.19,1.53,2.76,1.53,4.7
				C85.46,37.67,84.86,39.38,83.66,40.65z M85.64,20.44c-0.86,0-1.63-0.32-2.11-1.13H83.5l-0.08,0.99h-1.44
				c0.03-0.45,0.06-1.17,0.06-1.85V10.7h1.69v3.92h0.03c0.41-0.63,1.14-1.05,2.14-1.05c1.63,0,2.8,1.34,2.78,3.34
				C88.67,19.26,87.15,20.44,85.64,20.44z M100.14,40.75c-1.18,1.03-2.81,1.55-4.9,1.55c-1.94,0-3.49-0.37-4.66-1.1l0.67-2.36
				c1.26,0.73,2.65,1.1,4.16,1.1c1.09,0,1.93-0.24,2.54-0.72c0.6-0.48,0.9-1.12,0.9-1.94c0-0.71-0.25-1.31-0.74-1.81
				c-0.5-0.49-1.32-0.94-2.48-1.37c-3.14-1.15-4.72-2.84-4.72-5.07c0-1.45,0.55-2.65,1.66-3.58c1.11-0.93,2.58-1.39,4.42-1.39
				c1.63,0,3,0.28,4.08,0.84l-0.73,2.31c-1.01-0.54-2.16-0.82-3.45-0.82c-1.02,0-1.81,0.25-2.38,0.73
				c-0.48,0.44-0.72,0.98-0.72,1.61c0,0.7,0.28,1.28,0.83,1.74c0.48,0.42,1.35,0.87,2.61,1.36c1.55,0.61,2.69,1.33,3.42,2.16
				c0.73,0.82,1.09,1.85,1.09,3.07C101.73,38.57,101.2,39.8,100.14,40.75z M110.29,31.39h-3.18v6.21c0,1.57,0.56,2.36,1.69,2.36
				c0.52,0,0.94-0.04,1.28-0.12l0.08,2.15c-0.57,0.21-1.32,0.32-2.24,0.32c-1.13,0-2.03-0.34-2.67-1.02
				c-0.65-0.68-0.96-1.83-0.96-3.44v-6.44h-1.89v-2.13h1.89v-2.34l2.82-0.84v3.18h3.18V31.39z M108.67,20.44
				c-1.88,0-3.35-1.27-3.35-3.39c0-2.16,1.44-3.48,3.46-3.48c1.99,0,3.32,1.38,3.32,3.38C112.1,19.36,110.37,20.44,108.67,20.44z
				 M122.11,40.38c-1.2,1.29-2.78,1.94-4.75,1.94c-1.91,0-3.43-0.62-4.55-1.86c-1.13-1.24-1.69-2.81-1.69-4.7
				c0-1.98,0.58-3.6,1.75-4.86c1.17-1.27,2.73-1.89,4.7-1.89c1.91,0,3.44,0.62,4.59,1.87c1.1,1.2,1.65,2.77,1.65,4.67
				C123.81,37.51,123.25,39.12,122.11,40.38z M125.09,13.71h0.95v-1.23l1.66-0.46v1.69h1.6v1.24h-1.6v2.9
				c0,0.81,0.22,1.22,0.86,1.22c0.3,0,0.47-0.01,0.66-0.07l0.03,1.26c-0.25,0.09-0.7,0.18-1.22,0.18c-0.63,0-1.14-0.2-1.45-0.54
				c-0.37-0.38-0.53-0.99-0.53-1.85v-3.09h-0.95V13.71z M132.48,31.76c-0.28-0.05-0.59-0.07-0.91-0.07c-1.01,0-1.79,0.38-2.35,1.13
				c-0.48,0.67-0.72,1.5-0.72,2.52v6.7h-2.88v-8.75c0-1.46-0.03-2.8-0.08-4.02h2.51l0.11,2.44h0.08c0.3-0.84,0.78-1.51,1.44-2.02
				c0.64-0.46,1.34-0.68,2.08-0.68c0.26,0,0.51,0.01,0.72,0.05V31.76z M132.92,16.34v3.94h-1.69V10.7h1.69v3.9h0.03
				c0.21-0.31,0.49-0.57,0.84-0.74c0.34-0.19,0.74-0.3,1.17-0.3c1.14,0,2.33,0.74,2.33,2.85v3.88h-1.69v-3.7
				c0-0.95-0.36-1.68-1.29-1.68c-0.66,0-1.12,0.43-1.32,0.93C132.93,15.99,132.92,16.17,132.92,16.34z M144.81,36.34h-8.64
				c0.03,1.26,0.45,2.22,1.26,2.88c0.73,0.6,1.67,0.9,2.83,0.9c1.28,0,2.44-0.2,3.49-0.61l0.45,1.97c-1.22,0.53-2.67,0.79-4.35,0.79
				c-2.01,0-3.58-0.58-4.73-1.74c-1.15-1.16-1.72-2.73-1.72-4.69c0-1.93,0.54-3.53,1.6-4.81c1.13-1.36,2.64-2.05,4.54-2.05
				c1.87,0,3.28,0.68,4.24,2.05c0.76,1.09,1.15,2.43,1.15,4.02C144.91,35.55,144.88,35.98,144.81,36.34z M85.27,14.86
				c-0.69,0-1.32,0.49-1.49,1.22c-0.03,0.12-0.06,0.27-0.06,0.43v1.07c0,0.14,0.01,0.27,0.04,0.39c0.18,0.67,0.77,1.16,1.49,1.16
				c1.06,0,1.7-0.82,1.7-2.16C86.96,15.8,86.39,14.86,85.27,14.86z M97.41,14.7c-1.04,0-1.48,0.93-1.55,1.61h2.93
				C98.81,15.7,98.53,14.7,97.41,14.7z M108.74,14.76c-1.19,0-1.67,1.15-1.67,2.24c0,1.27,0.64,2.23,1.66,2.23
				c0.96,0,1.63-0.92,1.63-2.26C110.35,15.95,109.89,14.76,108.74,14.76z M76.29,18.3c0,0.65,0.43,0.95,0.96,0.95
				c0.69,0,1.17-0.43,1.33-0.91c0.04-0.12,0.04-0.24,0.04-0.37v-0.9C77.42,17.06,76.29,17.3,76.29,18.3z M141.87,14.7
				c-1.04,0-1.48,0.93-1.55,1.61h2.93C143.27,15.7,143,14.7,141.87,14.7z"/>
		</g>
	</g>
	<g>
		<path class="st0" d="M150.97,55H9.03c-4.15,0-7.53-3.32-7.53-7.4V7.41C1.5,3.33,4.88,0,9.03,0h141.95c4.15,0,7.53,3.33,7.53,7.41
			V47.6C158.5,51.68,155.12,55,150.97,55z M9.03,1.92c-3.08,0-5.58,2.46-5.58,5.49V47.6c0,3.02,2.5,5.49,5.58,5.49h141.95
			c3.08,0,5.58-2.46,5.58-5.49V7.41c0-3.03-2.5-5.49-5.58-5.49H9.03z"/>
	</g>
</g>
</svg>
