<?xml version="1.0" encoding="utf-8"?>
<!-- Generator: Adobe Illustrator 24.0.3, SVG Export Plug-In . SVG Version: 6.00 Build 0)  -->
<svg version="1.1" id="圖層_1" xmlns="http://www.w3.org/2000/svg" xmlns:xlink="http://www.w3.org/1999/xlink" x="0px" y="0px"
	 viewBox="0 0 168 55" style="enable-background:new 0 0 168 55;" xml:space="preserve">
<style type="text/css">
	.st0{fill:#FBF9F4;}
</style>
<g>
	<g>
		<path class="st0" d="M157.96,55H10.04c-4.49,0-8.13-3.65-8.13-8.13V8.13C1.91,3.65,5.56,0,10.04,0h147.92
			c4.48,0,8.13,3.65,8.13,8.13v38.73C166.09,51.35,162.44,55,157.96,55z M10.04,1.92c-3.43,0-6.21,2.79-6.21,6.21v38.73
			c0,3.43,2.79,6.21,6.21,6.21h147.92c3.43,0,6.21-2.79,6.21-6.21V8.13c0-3.43-2.79-6.21-6.21-6.21H10.04z"/>
	</g>
	<g>
		<path class="st0" d="M56.47,16.05h-1.09c0-0.15-0.1-0.57-0.31-1.27h-1.57c-0.21,0.69-0.32,1.11-0.32,1.27h-1.03
			c0-0.09,0.27-0.82,0.8-2.18c0.53-1.37,0.8-2.12,0.8-2.26h1.29c0,0.13,0.24,0.87,0.72,2.22C56.23,15.19,56.47,15.93,56.47,16.05z
			 M54.89,14.13c-0.39-1.17-0.58-1.81-0.58-1.9h-0.05c0,0.09-0.2,0.72-0.6,1.9H54.89z"/>
		<path class="st0" d="M60.86,16.05h-0.84c0-0.09-0.31-0.58-0.94-1.48c-0.65-0.94-1.03-1.58-1.12-1.93h-0.05
			C57.97,13.15,58,13.6,58,14c0,0.56,0.02,1.25,0.05,2.05h-0.84c0.03-0.7,0.05-1.48,0.05-2.32c0-0.83-0.02-1.53-0.05-2.12h1.01
			c0,0.12,0.28,0.6,0.84,1.44c0.6,0.89,0.94,1.5,1.03,1.82h0.05c-0.05-0.51-0.08-0.96-0.08-1.36c0-0.62-0.02-1.25-0.05-1.89h0.85
			c-0.03,0.56-0.05,1.27-0.05,2.12C60.81,14.59,60.83,15.36,60.86,16.05z"/>
		<path class="st0" d="M65.8,13.68c0,0.65-0.21,1.21-0.62,1.69c-0.41,0.48-0.99,0.72-1.74,0.72c-0.34,0-0.8-0.01-1.39-0.04
			c0.03-0.69,0.04-1.46,0.04-2.32c0-0.83-0.01-1.53-0.04-2.12h0.6c0.1,0,0.24,0,0.44-0.01c0.19-0.01,0.32-0.01,0.38-0.01
			c0.82,0,1.41,0.2,1.78,0.61C65.62,12.62,65.8,13.11,65.8,13.68z M64.87,13.83c0-0.44-0.13-0.8-0.38-1.1
			c-0.25-0.3-0.64-0.45-1.17-0.45c-0.1,0-0.23,0.01-0.4,0.03c0.02,0.45,0.03,0.93,0.03,1.42c0,0.54,0.01,1.08,0.03,1.62
			c0.15,0.03,0.3,0.04,0.44,0.04c0.49,0,0.85-0.15,1.09-0.45C64.75,14.63,64.87,14.26,64.87,13.83z"/>
		<path class="st0" d="M70.36,16.05h-1.01c-0.26-0.8-0.47-1.3-0.61-1.49c-0.14-0.19-0.37-0.28-0.68-0.28c-0.13,0-0.26,0-0.38,0
			c0,0.58,0.01,1.17,0.03,1.77h-0.95c0.03-0.69,0.04-1.46,0.04-2.32c0-0.83-0.01-1.53-0.04-2.12h0.59c0.07,0,0.21,0,0.43-0.01
			c0.22-0.01,0.42-0.01,0.6-0.01c1.04,0,1.56,0.36,1.56,1.07c0,0.57-0.3,0.96-0.89,1.18v0.05c0.23,0.06,0.43,0.24,0.6,0.54
			C69.83,14.73,70.06,15.27,70.36,16.05z M69.08,12.92c0-0.45-0.29-0.68-0.87-0.68c-0.21,0-0.4,0.02-0.57,0.05
			c0.02,0.35,0.04,0.81,0.04,1.38c0.12,0,0.23,0.01,0.32,0.01C68.72,13.67,69.08,13.42,69.08,12.92z"/>
		<path class="st0" d="M75.24,13.75c0,0.7-0.21,1.28-0.64,1.73c-0.43,0.46-0.96,0.69-1.58,0.69c-0.6,0-1.1-0.21-1.51-0.63
			c-0.4-0.42-0.61-0.96-0.61-1.61c0-0.7,0.21-1.28,0.64-1.73c0.43-0.46,0.96-0.69,1.58-0.69c0.6,0,1.1,0.21,1.51,0.63
			C75.04,12.57,75.24,13.1,75.24,13.75z M74.3,13.85c0-0.47-0.12-0.86-0.36-1.16c-0.24-0.3-0.54-0.44-0.9-0.44
			c-0.33,0-0.61,0.15-0.85,0.45c-0.23,0.3-0.35,0.67-0.35,1.13c0,0.47,0.12,0.86,0.37,1.15c0.24,0.3,0.54,0.44,0.9,0.44
			c0.33,0,0.61-0.15,0.85-0.45C74.18,14.68,74.3,14.3,74.3,13.85z"/>
		<path class="st0" d="M77.17,16.05H76.2c0.03-0.7,0.04-1.48,0.04-2.32c0-0.83-0.01-1.53-0.04-2.12h0.96
			c-0.03,0.57-0.04,1.28-0.04,2.12C77.12,14.59,77.14,15.36,77.17,16.05z"/>
		<path class="st0" d="M82.11,13.68c0,0.65-0.21,1.21-0.62,1.69c-0.41,0.48-0.99,0.72-1.74,0.72c-0.34,0-0.8-0.01-1.39-0.04
			c0.03-0.69,0.04-1.46,0.04-2.32c0-0.83-0.01-1.53-0.04-2.12h0.6c0.1,0,0.24,0,0.44-0.01s0.32-0.01,0.38-0.01
			c0.82,0,1.41,0.2,1.78,0.61C81.92,12.62,82.11,13.11,82.11,13.68z M81.18,13.83c0-0.44-0.13-0.8-0.38-1.1
			c-0.25-0.3-0.64-0.45-1.17-0.45c-0.1,0-0.23,0.01-0.4,0.03c0.02,0.45,0.03,0.93,0.03,1.42c0,0.54,0.01,1.08,0.03,1.62
			c0.15,0.03,0.3,0.04,0.44,0.04c0.49,0,0.85-0.15,1.09-0.45C81.06,14.63,81.18,14.26,81.18,13.83z"/>
		<path class="st0" d="M88.66,16.05h-1.09c0-0.15-0.1-0.57-0.31-1.27h-1.57c-0.21,0.69-0.32,1.11-0.32,1.27h-1.03
			c0-0.09,0.27-0.82,0.8-2.18c0.53-1.37,0.8-2.12,0.8-2.26h1.29c0,0.13,0.24,0.87,0.72,2.22C88.42,15.19,88.66,15.93,88.66,16.05z
			 M87.09,14.13c-0.39-1.17-0.58-1.81-0.58-1.9h-0.05c0,0.09-0.2,0.72-0.6,1.9H87.09z"/>
		<path class="st0" d="M92.64,12.78c0,0.54-0.2,0.94-0.61,1.2c-0.4,0.26-0.9,0.39-1.48,0.39c-0.11,0-0.18,0-0.23-0.01
			c0,0.43,0.01,0.99,0.04,1.69H89.4c0.03-0.66,0.04-1.43,0.04-2.32c0-0.82-0.01-1.52-0.04-2.12h0.59c0.08,0,0.25,0,0.48-0.01
			s0.45-0.01,0.62-0.01c0.43,0,0.8,0.1,1.09,0.29C92.49,12.08,92.64,12.38,92.64,12.78z M91.76,12.97c0-0.49-0.32-0.73-0.97-0.73
			c-0.16,0-0.33,0.02-0.51,0.05c0.03,0.43,0.04,0.92,0.04,1.46c0.06,0,0.12,0.01,0.2,0.01C91.34,13.75,91.76,13.49,91.76,12.97z"/>
		<path class="st0" d="M96.72,12.78c0,0.54-0.2,0.94-0.6,1.2c-0.4,0.26-0.9,0.39-1.48,0.39c-0.11,0-0.18,0-0.23-0.01
			c0,0.43,0.01,0.99,0.04,1.69h-0.96c0.03-0.66,0.04-1.43,0.04-2.32c0-0.82-0.01-1.52-0.04-2.12h0.59c0.08,0,0.25,0,0.48-0.01
			s0.45-0.01,0.62-0.01c0.43,0,0.8,0.1,1.09,0.29C96.57,12.08,96.72,12.38,96.72,12.78z M95.84,12.97c0-0.49-0.32-0.73-0.97-0.73
			c-0.16,0-0.33,0.02-0.51,0.05c0.03,0.43,0.04,0.92,0.04,1.46c0.06,0,0.12,0.01,0.2,0.01C95.43,13.75,95.84,13.49,95.84,12.97z"/>
		<path class="st0" d="M103.41,13.75c0,0.7-0.21,1.28-0.64,1.73c-0.43,0.46-0.96,0.69-1.58,0.69c-0.6,0-1.1-0.21-1.51-0.63
			c-0.4-0.42-0.61-0.96-0.61-1.61c0-0.7,0.21-1.28,0.64-1.73c0.43-0.46,0.96-0.69,1.58-0.69c0.6,0,1.1,0.21,1.51,0.63
			C103.2,12.57,103.41,13.1,103.41,13.75z M102.46,13.85c0-0.47-0.12-0.86-0.36-1.16c-0.24-0.3-0.54-0.44-0.9-0.44
			c-0.33,0-0.61,0.15-0.85,0.45c-0.23,0.3-0.35,0.67-0.35,1.13c0,0.47,0.12,0.86,0.37,1.15c0.24,0.3,0.54,0.44,0.9,0.44
			c0.33,0,0.61-0.15,0.85-0.45C102.35,14.68,102.46,14.3,102.46,13.85z"/>
		<path class="st0" d="M108.02,16.05h-0.84c0-0.09-0.31-0.58-0.94-1.48c-0.65-0.94-1.03-1.58-1.12-1.93h-0.05
			c0.06,0.5,0.09,0.95,0.09,1.35c0,0.56,0.02,1.25,0.05,2.05h-0.84c0.03-0.7,0.05-1.48,0.05-2.32c0-0.83-0.02-1.53-0.05-2.12h1.01
			c0,0.12,0.28,0.6,0.84,1.44c0.6,0.89,0.94,1.5,1.03,1.82h0.05c-0.05-0.51-0.08-0.96-0.08-1.36c0-0.62-0.02-1.25-0.05-1.89h0.85
			c-0.03,0.56-0.05,1.27-0.05,2.12C107.98,14.59,107.99,15.36,108.02,16.05z"/>
	</g>
	<g>
		<path class="st0" d="M67.82,30.27c0,2.2-0.65,3.96-1.96,5.26c-1.48,1.56-3.41,2.33-5.79,2.33c-2.28,0-4.21-0.79-5.8-2.37
			c-1.59-1.58-2.39-3.53-2.39-5.87s0.8-4.29,2.39-5.87c1.59-1.58,3.53-2.37,5.8-2.37c1.13,0,2.21,0.22,3.24,0.66
			c1.03,0.44,1.85,1.03,2.47,1.76l-1.39,1.39c-1.04-1.25-2.48-1.87-4.32-1.87c-1.66,0-3.09,0.58-4.31,1.75
			c-1.21,1.17-1.82,2.68-1.82,4.55c0,1.87,0.61,3.38,1.82,4.55c1.21,1.17,2.65,1.75,4.31,1.75c1.76,0,3.23-0.59,4.4-1.76
			c0.76-0.76,1.2-1.83,1.32-3.19h-5.73v-1.89h7.64C67.78,29.49,67.82,29.89,67.82,30.27z"/>
		<path class="st0" d="M70.22,28.01c1.04-1.09,2.37-1.64,3.99-1.64c1.61,0,2.94,0.55,3.99,1.64c1.04,1.09,1.56,2.46,1.56,4.11
			s-0.52,3.01-1.56,4.11c-1.04,1.09-2.37,1.64-3.99,1.64c-1.62,0-2.94-0.55-3.99-1.64c-1.04-1.09-1.56-2.46-1.56-4.11
			S69.18,29.11,70.22,28.01z M71.73,34.95c0.7,0.71,1.52,1.07,2.48,1.07c0.95,0,1.78-0.36,2.48-1.07c0.7-0.71,1.05-1.65,1.05-2.83
			c0-1.17-0.35-2.12-1.05-2.83c-0.7-0.71-1.52-1.07-2.48-1.07c-0.96,0-1.78,0.36-2.48,1.07c-0.7,0.71-1.05,1.66-1.05,2.83
			C70.68,33.29,71.03,34.24,71.73,34.95z"/>
		<path class="st0" d="M82,28.01c1.04-1.09,2.37-1.64,3.99-1.64c1.61,0,2.94,0.55,3.99,1.64c1.04,1.09,1.56,2.46,1.56,4.11
			s-0.52,3.01-1.56,4.11c-1.04,1.09-2.37,1.64-3.99,1.64c-1.62,0-2.94-0.55-3.99-1.64c-1.04-1.09-1.56-2.46-1.56-4.11
			S80.96,29.11,82,28.01z M83.51,34.95c0.7,0.71,1.52,1.07,2.48,1.07c0.95,0,1.78-0.36,2.48-1.07c0.7-0.71,1.05-1.65,1.05-2.83
			c0-1.17-0.35-2.12-1.05-2.83c-0.7-0.71-1.52-1.07-2.48-1.07c-0.95,0-1.78,0.36-2.48,1.07c-0.7,0.71-1.05,1.66-1.05,2.83
			C82.47,33.29,82.81,34.24,83.51,34.95z"/>
		<path class="st0" d="M97.53,42.62c-1.28,0-2.32-0.32-3.13-0.96c-0.81-0.64-1.39-1.37-1.74-2.19l1.85-0.77
			c0.21,0.59,0.58,1.08,1.13,1.47c0.55,0.4,1.18,0.59,1.88,0.59c1.12,0,1.99-0.33,2.63-1c0.64-0.67,0.96-1.57,0.96-2.72v-1.03h-0.09
			c-0.35,0.53-0.85,0.97-1.5,1.32c-0.65,0.35-1.37,0.53-2.18,0.53c-1.39,0-2.6-0.55-3.61-1.65c-1.01-1.1-1.52-2.47-1.52-4.1
			c0-1.63,0.51-3,1.52-4.1c1.01-1.1,2.22-1.65,3.61-1.65c0.81,0,1.53,0.18,2.18,0.53c0.65,0.35,1.14,0.79,1.5,1.32h0.09v-1.5h1.94
			v10.24c0,1.85-0.54,3.26-1.61,4.22C100.38,42.14,99.07,42.62,97.53,42.62z M97.68,36.02c0.95,0,1.77-0.35,2.43-1.06s1-1.65,1-2.84
			c0-1.19-0.33-2.14-1-2.84c-0.67-0.71-1.48-1.06-2.43-1.06c-0.94,0-1.75,0.36-2.42,1.07c-0.68,0.71-1.01,1.66-1.01,2.83
			c0,1.17,0.34,2.12,1.01,2.83C95.94,35.66,96.74,36.02,97.68,36.02z"/>
		<path class="st0" d="M107,37.51h-2.03V21.75H107V37.51z"/>
		<path class="st0" d="M113.69,37.87c-1.63,0-2.96-0.54-3.97-1.63c-1.02-1.09-1.53-2.46-1.53-4.12c0-1.57,0.5-2.92,1.49-4.05
			c0.99-1.13,2.26-1.7,3.8-1.7c1.6,0,2.88,0.52,3.84,1.56c0.96,1.04,1.44,2.44,1.44,4.18l-0.02,0.37h-8.52
			c0.06,1.09,0.42,1.95,1.09,2.58c0.67,0.63,1.45,0.95,2.35,0.95c1.45,0,2.44-0.62,2.95-1.85l1.8,0.75
			c-0.35,0.84-0.93,1.54-1.74,2.1C115.86,37.58,114.87,37.87,113.69,37.87z M116.6,30.82c-0.04-0.62-0.33-1.2-0.85-1.76
			c-0.52-0.56-1.3-0.84-2.32-0.84c-0.75,0-1.4,0.23-1.95,0.7c-0.55,0.47-0.93,1.1-1.13,1.89H116.6z"/>
		<path class="st0" d="M126.73,37.51h-2.03V21.75h5.37c1.34,0,2.49,0.44,3.47,1.33c0.98,0.89,1.46,2.01,1.46,3.36
			c0,1.35-0.49,2.47-1.46,3.36c-0.98,0.89-2.13,1.33-3.47,1.33h-3.35V37.51z M126.73,29.19h3.39c0.85,0,1.53-0.29,2.05-0.86
			c0.51-0.57,0.77-1.2,0.77-1.89c0-0.69-0.26-1.32-0.77-1.89c-0.51-0.57-1.2-0.86-2.05-0.86h-3.39V29.19z"/>
		<path class="st0" d="M138.36,37.51h-2.03V21.75h2.03V37.51z"/>
		<path class="st0" d="M143.58,37.87c-1.15,0-2.1-0.33-2.87-0.99c-0.77-0.66-1.16-1.53-1.16-2.62c0-1.17,0.45-2.1,1.37-2.76
			c0.91-0.67,2.03-1,3.37-1c1.19,0,2.17,0.22,2.93,0.66v-0.31c0-0.79-0.27-1.43-0.81-1.9c-0.54-0.48-1.21-0.72-2-0.72
			c-0.59,0-1.12,0.14-1.6,0.42c-0.48,0.28-0.8,0.66-0.98,1.14l-1.85-0.79c0.25-0.65,0.74-1.24,1.48-1.79
			c0.73-0.55,1.7-0.83,2.91-0.83c1.38,0,2.52,0.4,3.44,1.21c0.91,0.81,1.37,1.95,1.37,3.41v6.52h-1.94v-1.5h-0.09
			C146.32,37.25,145.13,37.87,143.58,37.87z M143.91,36.02c0.84,0,1.6-0.31,2.28-0.94c0.68-0.62,1.02-1.36,1.02-2.21
			c-0.57-0.47-1.43-0.7-2.58-0.7c-0.98,0-1.73,0.21-2.22,0.64c-0.5,0.43-0.75,0.93-0.75,1.5c0,0.53,0.23,0.95,0.68,1.26
			C142.8,35.86,143.32,36.02,143.91,36.02z"/>
		<path class="st0" d="M153.55,42.27h-2.09l2.51-5.44l-4.45-10.11h2.2l3.22,7.75h0.04l3.13-7.75h2.2L153.55,42.27z"/>
	</g>
	<g>
		<path class="st0" d="M14.09,29.36c0-5.04,0-10.07,0-15.11c0-0.62,0.12-1.18,0.56-1.65c0.17-0.18,0.29-0.23,0.5-0.02
			c3.39,3.46,6.79,6.91,10.18,10.36c2.2,2.23,4.4,4.47,6.61,6.7c0.21,0.22,0.23,0.33,0.01,0.55c-5.4,5.37-10.8,10.75-16.18,16.14
			c-0.33,0.33-0.56,0.29-0.88,0.05c-0.58-0.44-0.8-1.04-0.8-1.75c0-2.98,0-5.97-0.01-8.95C14.08,33.58,14.08,31.47,14.09,29.36
			C14.08,29.36,14.08,29.36,14.09,29.36z"/>
		<path class="st0" d="M16.02,12.03c0.41,0,0.7,0.12,0.98,0.27c6.9,3.87,13.79,7.73,20.7,11.59c0.32,0.18,0.31,0.28,0.07,0.52
			c-1.54,1.52-3.07,3.05-4.6,4.58c-0.17,0.17-0.27,0.26-0.49,0.03c-5.49-5.6-10.98-11.19-16.48-16.78
			C16.15,12.2,16.12,12.15,16.02,12.03z"/>
		<path class="st0" d="M17.57,46.2c5.01-5.06,10.02-10.12,15.01-15.19c0.31-0.32,0.45-0.27,0.73,0.02c1.27,1.32,2.56,2.62,3.85,3.92
			c0.23,0.23,0.25,0.32-0.06,0.49c-6.43,3.52-12.85,7.05-19.27,10.57C17.72,46.07,17.62,46.17,17.57,46.2z"/>
		<path class="st0" d="M46.17,29.5c-0.02,0.57-0.29,0.97-0.69,1.26c-0.3,0.22-0.63,0.4-0.96,0.58c-1.94,1.07-3.89,2.14-5.83,3.22
			c-0.26,0.15-0.42,0.14-0.63-0.08c-1.38-1.43-2.77-2.84-4.17-4.25c-0.2-0.2-0.21-0.32,0-0.52c1.63-1.61,3.25-3.22,4.87-4.85
			c0.19-0.19,0.33-0.21,0.56-0.08c1.92,1.09,3.85,2.16,5.77,3.24C45.68,28.37,46.14,28.8,46.17,29.5z"/>
	</g>
</g>
</svg>
