<svg xmlns="http://www.w3.org/2000/svg" viewBox="0 0 124.36 151.52"><defs><style>.cls-1{fill:#9fa0a0;}.cls-2{fill:#ff6d2d;}</style></defs><g id="圖層_3" data-name="圖層 3"><path d="M100,128.57l2.16-.19,0,2.51c-2.61.31-5.18.6-7.37.82L94.57,129c.8-.06,1.69-.09,2.67-.19v-1.55H95.43v-2.32h1.81v-1.34H95V121.2h6.89v2.38H100v1.34h1.66v2.32H100Zm6.2,1.46a13.36,13.36,0,0,0,2.09-5.14l2.7,1a14.45,14.45,0,0,1-2.54,6.29l-2.25-1.69v2.77h-3.43V119.62c-2.8.25-5.53.41-7.75.6l-.32-3,1.59-.07v-9.4H94.8v-3h12.73v3H106.2ZM99.65,107.8v1.46h3.12V107.8Zm0,5.21h3.12v-1.46H99.65Zm3.12,3.84V115.3H99.65V117Zm18.73,15.09a11.77,11.77,0,0,0-1-2.89c-.32,3-1.14,3.81-3.17,3.81h-2.7c-2.8,0-3.4-.86-3.4-3.59V125h2.73a19.3,19.3,0,0,0-2.16-1.11l1-1h-5.49v-3.17H124v3.17H116.1a16.07,16.07,0,0,1,2.26,1.5l-2,2.35a13.3,13.3,0,0,0-2-1.5v4c0,.73.1.82.73.82h1.88c.57,0,.7-.1.79-2.36,2.54.93,1.49.56,2.54.93a16.58,16.58,0,0,0-1.9-2.89L121,124.6a15.88,15.88,0,0,1,3.37,6.06Zm-8-23.06h-5.84v-2.95h5.84v-2.29h3.68v2.29h6.35v2.95h-6.35v1.53h5.91v8H108.07v-8h5.46Zm-1,4.19h-1.68v2.67h1.68Zm3.81,0h-1.71v2.67h1.71Zm2.13,2.67h1.78v-2.67h-1.78Z"/><path d="M61.18,109.9a47.33,47.33,0,0,1-2.68,14.29,22.71,22.71,0,0,1,3.42,3.3l-2.25,3a25.77,25.77,0,0,0-2.83-3,17.61,17.61,0,0,1-5.77,5.81,13.38,13.38,0,0,0-2.26-3A13,13,0,0,0,54,125.14c-.57-.48-1.15-.89-1.72-1.3l-.25,1-3.08-1.62c.7-2.6,1.49-6.16,2.25-9.84H48.72V109.9h3.14c.41-2.19.79-4.35,1.08-6.29l3.56.32c-.32,1.87-.7,3.91-1.12,6h5.8Zm-6.53,3.46c-.47,2.38-1,4.76-1.52,7,.76.51,1.56,1,2.35,1.59a36.42,36.42,0,0,0,1.9-8.54Z"/><path d="M71.2,114.34l5.35-6.49Z"/><path d="M78.18,120.4v-3.56h-7v-2.5l5.35-6.49-2.34-2.68H61.8v3.49h9.87l-3.31,3.66-.91-.06v4.58h-6.7v3.56h6.7v5.94h0v3a.1.1,0,0,1-.1.1H62.52l.62,3.74h4.21a3.84,3.84,0,0,0,3.84-3.84v-3h0V120.4Z"/><path d="M29.49,127.82l0,.13a5,5,0,0,1-.25,1.29,1.27,1.27,0,0,1-1.2.66h-1.7a.75.75,0,0,1-.74-.73V125.8H30V114.66H14.75V125.8h3.48a5.39,5.39,0,0,1-1.47,2.71,9.18,9.18,0,0,1-4,2l-.12,0,1,2.69.1,0a11.76,11.76,0,0,0,5-2.58,8.24,8.24,0,0,0,2.36-4.79h1.62V130a2.82,2.82,0,0,0,2.8,2.77H29c2.48,0,3.05-3.09,3.18-4v-.09Zm-11.87-10.3h9.56v1.27H17.62Zm0,5.42v-1.28h9.56v1.28Z"/><path d="M30.5,110.51H26.65l.93-2.09h2.94v-2.86H23.73v-1.88H20.86v1.88H14.28v2.86h2.94l.94,2.09h-3.9v2.87H30.5Zm-6.71,0H21l-1-2.09h4.74Z"/><path d="M9.21,126.18l2.61.51s.6-2.63,1.24-5.64l-2.81-.58Z"/><path d="M3.81,121.05l-2.69,1s1.24,3.44,2,6.38l2.52-.89S4.73,123.58,3.81,121.05Z"/><path d="M8.79,119.7h3.77v-2.87H8.79v-2.44h3.77v-2.86h-.37l1.48-1.67-.11-.07a22.65,22.65,0,0,1-4.82-4.18l.16-.5.27-.86-2.87-.57,0,.1C5,109.37-.14,112.9-.19,112.94l-.13.08,2,2,.08,0s.32-.22.81-.63H5.92v2.44H2v2.87h4v9.36c-2.51.68-4.47,1.14-4.8,1.21L1.88,133c.57-.12,5.77-1.35,10.68-3v-3c-1.26.43-2.54.84-3.77,1.21Zm-3.36-8.17a19.38,19.38,0,0,0,2.05-3,27,27,0,0,0,3.6,3Z"/><path d="M76,143h1.87l2,6,2-6h1.82l-3.11,8.62H79.13Z"/><path d="M117.27,143h6.44v1.68h-4.58v1.73h4v1.68h-4v1.79h4.65v1.68h-6.51Z"/><rect x="15.49" y="142.92" width="1.62" height="8.62"/><path d="M49.19,142.92a4.31,4.31,0,1,0,4.31,4.3A4.31,4.31,0,0,0,49.19,142.92Zm0,7a2.7,2.7,0,1,1,2.69-2.7A2.69,2.69,0,0,1,49.19,149.92Z"/><path d="M91.7,142.92a4.31,4.31,0,1,0,4.31,4.3A4.31,4.31,0,0,0,91.7,142.92Zm0,7a2.69,2.69,0,1,1,2.69-2.69A2.69,2.69,0,0,1,91.7,149.91Z"/><path d="M101.16,148.86a.11.11,0,0,0-.1-.06h0a.11.11,0,0,0-.1.06l-.77,1.43a0,0,0,0,0,0,0c0,.1.16,1.14.16,1.14a.08.08,0,0,0,.08.07h1.26s.06,0,.07-.07.18-1,.19-1.14,0,0,0,0Z"/><polygon points="100.6 147.83 101.52 147.83 102.11 142.92 100.01 142.92 100.6 147.83"/><polygon points="5.28 149.22 2.71 142.92 1.1 142.92 1.1 151.53 2.71 151.53 2.71 147.2 4.48 151.53 6.08 151.53 7.84 147.2 7.84 151.53 9.46 151.53 9.46 142.92 7.84 142.92 5.28 149.22"/><path d="M27.86,142.92H24.25v8.61h1.62V148h1.91l1,3.53h1.61l-1.11-4a2.57,2.57,0,0,0,1.12-2.11h0A2.54,2.54,0,0,0,27.86,142.92Zm0,3.46h-2v-.92h0v-.93h2a.93.93,0,0,1,0,1.85Z"/><path d="M41.27,145.46h0a2.54,2.54,0,0,0-2.54-2.54h-3.6v8.61h1.61V148h1.83l1.2,3.53h1.62l-1.33-3.91A2.52,2.52,0,0,0,41.27,145.46Zm-2.54.92h-2v-.92h0v-.93h2a.93.93,0,1,1,0,1.85Z"/><path d="M63.14,145.46h0a2.54,2.54,0,0,0-2.54-2.54H57v8.61h1.62V148h1.82l1.2,3.53h1.62l-1.33-3.91A2.53,2.53,0,0,0,63.14,145.46Zm-2.54.92h-2v-.92h0v-.93h2a.93.93,0,0,1,0,1.85Z"/><path d="M111.14,148.66a1.72,1.72,0,0,1-1.65,1.26h-.06a1.72,1.72,0,0,1-1.71-1.72v-1.95a1.72,1.72,0,0,1,1.71-1.72h.06a1.73,1.73,0,0,1,1.65,1.26l1.59-.27a3.37,3.37,0,0,0-3.27-2.6h0a3.36,3.36,0,0,0-3.35,3.35v1.91a3.36,3.36,0,0,0,3.35,3.35h0a3.37,3.37,0,0,0,3.27-2.61Z"/><path class="cls-1" d="M23.17,45.89S24.5,27.56,37.6,15.25a3.19,3.19,0,0,0,2.87,0,66.12,66.12,0,0,1,7.36-4.06c4.45-2,16.74-3.1,23.45-1.37a39.46,39.46,0,0,1,11.15,4.74s1.94,1.65,3.56.64c0,0,11.72,7.39,14.63,30.69,0,0-2.83-.77-5.33,2.33s-2.59,4.38-2.75,7,0,23,0,23A9.26,9.26,0,0,0,94,83.06c1.54,2.37,4,4.1,5.91,4.1H104V47s.65-20.61-15.44-35a4.32,4.32,0,0,0-1-3c-1.13-1.14-5.34-4.61-14.07-7S49.28-.58,37.48,8c0,0-2.75,2.37-2.18,4.38,0,0-10.67,7.84-15.12,28.63a25.75,25.75,0,0,0-.4,4.12v42.4s4.28.46,7.35-1.46a9.75,9.75,0,0,0,4.37-6.38V54.79C31.5,49.13,25.84,45.48,23.17,45.89Z"/><path class="cls-2" d="M16.62,45.67V87.58S3.28,85.71,3.28,67.65C3.28,52.05,11.45,45.67,16.62,45.67Z"/><path class="cls-2" d="M107.42,45.67V87.58s13.34-1.87,13.34-19.93C120.76,52.05,112.59,45.67,107.42,45.67Z"/></g></svg>