<svg xmlns="http://www.w3.org/2000/svg" viewBox="0 0 364.84 88.32"><defs><style>.cls-1{fill:#1E1E1E;}.cls-2{fill:#ff6d2d;}</style></defs><g id="圖層_3" data-name="圖層 3"><path d="M277.92,72.31h3.41l3.67,11,3.67-11H292L286.32,88h-2.73Z"/><path d="M351.92,72.31h11.74v3.06h-8.35v3.16h7.35v3h-7.35v3.28h8.46v3H351.92Z"/><rect x="166.87" y="72.23" width="2.95" height="15.71"/><path d="M228.28,72.23a7.86,7.86,0,1,0,7.85,7.86A7.87,7.87,0,0,0,228.28,72.23Zm0,12.76a4.91,4.91,0,1,1,4.9-4.9A4.91,4.91,0,0,1,228.28,85Z"/><path d="M306.52,72.23a7.86,7.86,0,1,0,7.85,7.86A7.86,7.86,0,0,0,306.52,72.23Zm0,12.76a4.91,4.91,0,1,1,4.91-4.91A4.91,4.91,0,0,1,306.52,85Z"/><path d="M323.77,83.07a.21.21,0,0,0-.18-.11h0a.2.2,0,0,0-.18.11l-1.4,2.6a.12.12,0,0,0,0,.07c0,.18.3,2.07.3,2.07a.13.13,0,0,0,.13.13h2.3a.13.13,0,0,0,.13-.13l.35-2.07a.12.12,0,0,0,0-.07Z"/><polygon points="322.75 81.2 324.42 81.2 325.5 72.23 321.67 72.23 322.75 81.2"/><polygon points="147.73 83.72 143.05 72.23 140.1 72.23 140.1 87.94 143.05 87.94 143.05 80.04 146.27 87.94 149.19 87.94 152.41 80.04 152.41 87.94 155.35 87.94 155.35 72.23 152.41 72.23 147.73 83.72"/><path d="M187.91,72.24h-6.57V87.94h2.94V81.5h3.49l1.81,6.44h2.95l-2-7.23a4.61,4.61,0,0,0,2-3.84h0A4.63,4.63,0,0,0,187.91,72.24Zm0,6.31h-3.63V76.87h0V75.18h3.63a1.69,1.69,0,1,1,0,3.37Z"/><path d="M213.11,76.87h0a4.63,4.63,0,0,0-4.63-4.63H201.9V87.94h2.95V81.5h3.33l2.19,6.44h2.94l-2.42-7.13A4.61,4.61,0,0,0,213.11,76.87Zm-4.63,1.68h-3.63V76.87h0V75.18h3.63a1.69,1.69,0,0,1,0,3.37Z"/><path d="M254.44,76.87h0a4.63,4.63,0,0,0-4.63-4.63h-6.57V87.94h2.95V81.5h3.32l2.19,6.44h3l-2.43-7.13A4.61,4.61,0,0,0,254.44,76.87Zm-4.63,1.68h-3.62V76.87h0V75.18h3.62a1.69,1.69,0,1,1,0,3.37Z"/><path d="M342,82.7a3.15,3.15,0,0,1-3,2.3h-.1a3.14,3.14,0,0,1-3.13-3.13V78.3a3.13,3.13,0,0,1,3.13-3.12h.1a3.13,3.13,0,0,1,3,2.29l2.9-.48a6.13,6.13,0,0,0-5.95-4.76h0a6.13,6.13,0,0,0-6.12,6.12v3.48a6.13,6.13,0,0,0,6.12,6.11h0a6.13,6.13,0,0,0,6-4.76Z"/><path d="M320.44,46.08l3.93-.35.06,4.57c-4.75.58-9.44,1.1-13.43,1.51l-.46-5c1.44-.12,3.06-.17,4.86-.35V43.64h-3.3V39.42h3.3V37h-4V32.65h12.56V37h-3.47v2.43h3v4.22h-3Zm11.28,2.66a24.25,24.25,0,0,0,3.83-9.38l4.92,1.74c-.81,4-2.15,8.51-4.64,11.46l-4.11-3.07v5h-6.25V29.75c-5.09.46-10.07.75-14.12,1.1l-.58-5.38,2.89-.12V8.22h-2.72V2.77h23.22V8.22h-2.44ZM319.8,8.22v2.66h5.67V8.22Zm0,9.49h5.67V15.05H319.8Zm5.67,7V21.88H319.8V25Zm34.16,27.5a22.27,22.27,0,0,0-1.91-5.27c-.58,5.5-2.09,7-5.79,7H347c-5.1,0-6.2-1.56-6.2-6.54V39.48h5a35.13,35.13,0,0,0-3.93-2l1.73-1.79h-10V29.87H364.2v5.79H349.79a29.55,29.55,0,0,1,4.11,2.72l-3.71,4.28a25.62,25.62,0,0,0-3.65-2.72v7.35c0,1.33.18,1.51,1.34,1.51h3.41c1,0,1.28-.19,1.45-4.3,4.63,1.69,2.71,1,4.63,1.69a29.82,29.82,0,0,0-3.47-5.27l4.8-2.08a28.75,28.75,0,0,1,6.14,11.06Zm-14.53-42H334.45V4.8H345.1V.63h6.71V4.8h11.58v5.38H351.81V13h10.77V27.61H335.14V13h10Zm-1.86,7.65h-3.06v4.86h3.06Zm6.95,0h-3.12v4.86h3.12Zm3.88,4.86h3.24V17.83h-3.24Z"/><path d="M249.65,12c-.64,10.53-2.23,19.39-4.89,26.05a41.83,41.83,0,0,1,6.25,6l-4.11,5.55a47.61,47.61,0,0,0-5.15-5.49,32.43,32.43,0,0,1-10.54,10.59,24,24,0,0,0-4.11-5.44,23.71,23.71,0,0,0,9.44-9.5c-1-.86-2.09-1.62-3.13-2.37l-.46,1.8-5.62-3c1.27-4.74,2.72-11.23,4.11-17.94h-4.51V12h5.73c.75-4,1.44-7.93,2-11.47l6.48.58c-.58,3.42-1.27,7.12-2,10.89h10.57Zm-11.9,6.31C236.88,22.69,235.9,27,235,31c1.39.93,2.84,1.86,4.29,2.9a66.33,66.33,0,0,0,3.47-15.57Z"/><path d="M267.91,20.14l9.77-11.85Z"/><path d="M280.65,31.18V24.69H267.91V20.14l9.77-11.85-4.27-4.88H250.78V9.78h18l-6,6.67-1.66-.11v8.35H248.87v6.49h12.21V42h0v5.53a.18.18,0,0,1-.17.17h-8.82l1.13,6.83h7.68a7,7,0,0,0,7-7V42h0V31.18Z"/><path d="M191.87,44.7l0,.25a8.7,8.7,0,0,1-.46,2.35,2.3,2.3,0,0,1-2.19,1.19h-3.1a1.34,1.34,0,0,1-1.34-1.31V41h8.13V20.71H165V41h6.34A9.88,9.88,0,0,1,168.67,46a16.88,16.88,0,0,1-7.27,3.6l-.24,0L163,54.5l.18,0a21.38,21.38,0,0,0,9.09-4.7A15.2,15.2,0,0,0,176.57,41h3v7.63a5.12,5.12,0,0,0,5.09,5.05l6.43,0h0c4.51,0,5.56-5.64,5.79-7.36l0-.17ZM170.23,25.94h17.42v2.32H170.23Zm0,9.86V33.49h17.42V35.8Z"/><path d="M193.72,13.15h-7l1.71-3.8h5.34V4.12H181.36V.7h-5.22V4.12h-12V9.34h5.36l1.71,3.81h-7.1v5.23h29.61Zm-12.24,0h-5.06l-1.8-3.81h8.66Z"/><path d="M154.89,41.73l4.77.92s1.1-4.8,2.25-10.29l-5.12-1.06Z"/><path d="M145.06,32.36l-4.91,1.79s2.26,6.28,3.63,11.63l4.58-1.63S146.73,37,145.06,32.36Z"/><path d="M154.13,29.9H161V24.67h-6.87V20.23H161V15h-.67l2.7-3-.19-.13A41.3,41.3,0,0,1,154,4.22c.1-.3.29-.92.29-.92l.49-1.56-5.22-1,0,.19c-2.3,10.18-11.69,16.63-11.79,16.69l-.23.16,3.68,3.73.14-.09s.58-.4,1.48-1.14h6.07v4.44h-7.24V29.9h7.24V47c-4.57,1.25-8.15,2.09-8.76,2.22l1.4,5c1-.22,10.51-2.45,19.46-5.44V43.26c-2.28.79-4.62,1.53-6.87,2.21ZM148,15a36.16,36.16,0,0,0,3.74-5.54A49.58,49.58,0,0,0,158.31,15Z"/><path class="cls-1" d="M19.89,45.89s1.33-18.33,14.43-30.64a3.19,3.19,0,0,0,2.87,0,66.12,66.12,0,0,1,7.36-4.06C49,9.18,61.28,8.09,68,9.82a39.62,39.62,0,0,1,11.16,4.74s1.94,1.65,3.56.64c0,0,11.72,7.39,14.63,30.69,0,0-2.83-.77-5.33,2.33s-2.59,4.38-2.75,7,0,23,0,23a9.26,9.26,0,0,0,1.45,4.83c1.54,2.37,4,4.1,5.9,4.1h4.13V47s.64-20.61-15.44-35a4.32,4.32,0,0,0-1-3C83.19,7.82,79,4.35,70.26,2S46-.58,34.2,8c0,0-2.75,2.37-2.18,4.38,0,0-10.68,7.84-15.12,28.63a25.15,25.15,0,0,0-.41,4.12v42.4s4.29.46,7.36-1.46a9.75,9.75,0,0,0,4.37-6.38V54.79C28.22,49.13,22.56,45.48,19.89,45.89Z"/><path class="cls-2" d="M13.34,45.67V87.58S0,85.71,0,67.65C0,52.05,8.17,45.67,13.34,45.67Z"/><path class="cls-2" d="M104.14,45.67V87.58s13.34-1.87,13.34-19.93C117.48,52.05,109.31,45.67,104.14,45.67Z"/></g></svg>